<!--
  - Copyright (c) 2022.
  -
  - This file is part of Matchday.
  -
  - Matchday is free software: you can redistribute it and/or modify
  - it under the terms of the GNU General Public License as published by
  - the Free Software Foundation, either version 3 of the License, or
  - (at your option) any later version.
  -
  - Matchday is distributed in the hope that it will be useful,
  - but WITHOUT ANY WARRANTY; without even the implied warranty of
  - MERCHANTABILITY or FITNESS FOR A PARTICULAR PURPOSE.  See the
  - GNU General Public License for more details.
  -
  - You should have received a copy of the GNU General Public License
  - along with Matchday.  If not, see <http://www.gnu.org/licenses/>.
  -->

<svg id="flag-icons-ag" viewBox="0 0 640 480" xmlns="http://www.w3.org/2000/svg">
  <defs>
    <clipPath id="a">
      <path d="M-79.7 0H603v512H-79.7z" fill-opacity=".7"/>
    </clipPath>
  </defs>
  <g clip-path="url(#a)" fill-rule="evenodd" transform="translate(74.7) scale(.9375)">
    <path d="M-120 0h763.3v511.5H-120z" fill="#fff"/>
    <path d="M-118.3.6h760.9v216.1h-761z"/>
    <path d="M21.3 203.2h505V317h-505z" fill="#0061ff"/>
    <path d="M642.8 1.8V512H262L642.8 1.7zm-761.5 0V512H262L-118.7 1.7z" fill="#e20000"/>
    <path d="M440.4 203.3 364 184l64.9-49-79.7 11.4 41-69.5-70.7 41L332.3 37l-47.9 63.8-19.3-74-21.7 76.3-47.8-65 13.7 83.2L138.5 78l41 69.5-77.4-12.5 63.8 47.8L86 203.3h354.3z" fill="#ffd600"/>
  </g>
</svg>
