<!--
  - Copyright (c) 2022.
  -
  - This file is part of Matchday.
  -
  - Matchday is free software: you can redistribute it and/or modify
  - it under the terms of the GNU General Public License as published by
  - the Free Software Foundation, either version 3 of the License, or
  - (at your option) any later version.
  -
  - Matchday is distributed in the hope that it will be useful,
  - but WITHOUT ANY WARRANTY; without even the implied warranty of
  - MERCHANTABILITY or FITNESS FOR A PARTICULAR PURPOSE.  See the
  - GNU General Public License for more details.
  -
  - You should have received a copy of the GNU General Public License
  - along with Matchday.  If not, see <http://www.gnu.org/licenses/>.
  -->

<svg id="flag-icons-bi" viewBox="0 0 640 480" xmlns="http://www.w3.org/2000/svg">
  <defs>
    <clipPath id="a">
      <path d="M-90.5 0H592v512H-90.5z" fill-opacity=".7"/>
    </clipPath>
  </defs>
  <g clip-path="url(#a)" fill-rule="evenodd" transform="translate(84.9) scale(.9375)">
    <path d="m-178 0 428.8 256L-178 512zm857.6 0L250.8 256l428.8 256z" fill="#18b637"/>
    <path d="m-178 0 428.8 256L679.6 0zm0 512 428.8-256 428.8 256z" fill="#cf0921"/>
    <path d="M679.6 0h-79.9L-178 464.3V512h79.9L679.6 47.7z" fill="#fff"/>
    <path d="M398.9 256a148 148 0 1 1-296.1 0 148 148 0 0 1 296 0z" fill="#fff"/>
    <path d="M-178 0v47.7L599.7 512h79.9v-47.7L-98.1 0z" fill="#fff"/>
    <path d="m280 200.2-19.3.3-10 16.4-9.9-16.4-19.2-.4 9.3-16.9-9.2-16.8 19.2-.4 10-16.4 9.9 16.5 19.2.4-9.3 16.8zm-64.6 111.6-19.2.3-10 16.4-9.9-16.4-19.2-.4 9.3-16.9-9.2-16.8 19.2-.4 10-16.4 9.9 16.5 19.2.4-9.3 16.8zm130.6 0-19.2.3-10 16.4-10-16.4-19.1-.4 9.3-16.9-9.3-16.8 19.2-.4 10-16.4 10 16.5 19.2.4-9.4 16.8z" fill="#cf0921" stroke="#18b637" stroke-width="3.9"/>
  </g>
</svg>
