<!--
  - Copyright (c) 2022.
  -
  - This file is part of Matchday.
  -
  - Matchday is free software: you can redistribute it and/or modify
  - it under the terms of the GNU General Public License as published by
  - the Free Software Foundation, either version 3 of the License, or
  - (at your option) any later version.
  -
  - Matchday is distributed in the hope that it will be useful,
  - but WITHOUT ANY WARRANTY; without even the implied warranty of
  - MERCHANTABILITY or FITNESS FOR A PARTICULAR PURPOSE.  See the
  - GNU General Public License for more details.
  -
  - You should have received a copy of the GNU General Public License
  - along with Matchday.  If not, see <http://www.gnu.org/licenses/>.
  -->

<svg id="flag-icons-fm" viewBox="0 0 640 480" xmlns="http://www.w3.org/2000/svg">
  <defs>
    <clipPath id="a">
      <path d="M-81.3 0h682.6v512H-81.3z" fill-opacity=".7"/>
    </clipPath>
  </defs>
  <g clip-path="url(#a)" fill-rule="evenodd" stroke-width="1pt" transform="translate(76.3) scale(.94)">
    <path d="M-252 0H772v512H-252z" fill="#6797d6"/>
    <path d="m259.8 123-32.4 22.2 12.4-35.9-32.5-22.2h40.1l12.4-35.9 12.4 36h40l-32.4 22.1 12.4 35.9M259.8 390l-32.4-22.2 12.4 36-32.5 22.1h40.1l12.4 35.9 12.4-36 40 .1-32.4-22.2 12.4-35.9m-188.4-92.4L79.3 306l1.4-38-37.5-11.7 38.4-11.7 1.3-38 22.3 30.8 38.4-11.8-24.6 30.7 22.4 30.7m274.2-11.7 24.6 30.7-1.4-38 37.5-11.7-38.4-11.7-1.3-38-22.3 30.8-38.4-11.8 24.6 30.7-22.4 30.7" fill="#fff"/>
  </g>
</svg>
