<!--
  - Copyright (c) 2022.
  -
  - This file is part of Matchday.
  -
  - Matchday is free software: you can redistribute it and/or modify
  - it under the terms of the GNU General Public License as published by
  - the Free Software Foundation, either version 3 of the License, or
  - (at your option) any later version.
  -
  - Matchday is distributed in the hope that it will be useful,
  - but WITHOUT ANY WARRANTY; without even the implied warranty of
  - MERCHANTABILITY or FITNESS FOR A PARTICULAR PURPOSE.  See the
  - GNU General Public License for more details.
  -
  - You should have received a copy of the GNU General Public License
  - along with Matchday.  If not, see <http://www.gnu.org/licenses/>.
  -->

<svg xmlns:xlink="http://www.w3.org/1999/xlink" id="flag-icons-gd" viewBox="0 0 640 480" xmlns="http://www.w3.org/2000/svg">
  <circle cx="319.9" cy="240.1" fill="#ce1126" r="57.6"/>
  <defs>
    <g id="c">
      <g id="b">
        <path d="M0-1v1h.5" fill="#fcd116" id="a" transform="rotate(18 0 -1)"/>
        <use transform="scale(-1 1)" xlink:href="#a"/>
      </g>
      <use transform="rotate(72)" xlink:href="#b"/>
      <use transform="rotate(144)" xlink:href="#b"/>
      <use transform="rotate(216)" xlink:href="#b"/>
      <use transform="rotate(288)" xlink:href="#b"/>
    </g>
  </defs>
  <path d="M0 0h640v480H0z" fill="#ce1126"/>
  <path d="M67.2 67.2h505.6v345.6H67.2z" fill="#007a5e"/>
  <path d="M67.2 67.3h505.6L67.2 412.9h505.6z" fill="#fcd116"/>
  <path d="M102.3 240.7a80.4 80.4 0 0 0 33.5 33.2 111 111 0 0 0-11.3-45l-22.2 11.8z" fill="#ce1126"/>
  <path d="M90.1 194.7c10.4 21.7-27.1 73.7 35.5 85.9a63.2 63.2 0 0 1-10.9-41.9 70 70 0 0 1 32.5 30.8c16.4-59.5-42-55.8-57.1-74.8z" fill="#fcd116"/>
  <use height="100%" transform="matrix(52.8 0 0 52.8 320 240)" width="100%" xlink:href="#c"/>
  <use height="100%" transform="translate(-30.3)" width="100%" x="-100" xlink:href="#d"/>
  <use height="100%" id="d" transform="matrix(31.2 0 0 31.2 320 33.6)" width="100%" xlink:href="#c"/>
  <use height="100%" transform="translate(30.3)" width="100%" x="100" xlink:href="#d"/>
  <use height="100%" transform="translate(-30.3 414.6)" width="100%" x="-100" xlink:href="#d"/>
  <use height="100%" transform="matrix(31.2 0 0 31.2 320 448.2)" width="100%" xlink:href="#c"/>
  <use height="100%" transform="translate(30.3 414.6)" width="100%" x="100" xlink:href="#d"/>
</svg>
