<!--
  - Copyright (c) 2022.
  -
  - This file is part of Matchday.
  -
  - Matchday is free software: you can redistribute it and/or modify
  - it under the terms of the GNU General Public License as published by
  - the Free Software Foundation, either version 3 of the License, or
  - (at your option) any later version.
  -
  - Matchday is distributed in the hope that it will be useful,
  - but WITHOUT ANY WARRANTY; without even the implied warranty of
  - MERCHANTABILITY or FITNESS FOR A PARTICULAR PURPOSE.  See the
  - GNU General Public License for more details.
  -
  - You should have received a copy of the GNU General Public License
  - along with Matchday.  If not, see <http://www.gnu.org/licenses/>.
  -->

<svg id="flag-icons-gr" viewBox="0 0 640 480" xmlns="http://www.w3.org/2000/svg">
  <g fill="#fff" fill-rule="evenodd" stroke-width="1.3">
    <path d="M106.7 0H160v266.7h-53.3z"/>
    <path d="M0 106.7h266.7V160H0z"/>
  </g>
  <path d="M0 0h640v53.3H0z" fill="#0d5eaf" fill-rule="evenodd"/>
  <path d="M0 53.3h640v53.4H0z" fill="#fff" fill-rule="evenodd"/>
  <path d="M0 106.7h640V160H0z" fill="#0d5eaf" fill-rule="evenodd"/>
  <path d="M0 160h640v53.3H0z" fill="#fff" fill-rule="evenodd"/>
  <path d="M0 0h266.7v266.7H0z" fill="#0d5eaf"/>
  <path d="M0 213.3h640v53.4H0z" fill="#0d5eaf" fill-rule="evenodd"/>
  <path d="M0 266.7h640V320H0z" fill="#fff" fill-rule="evenodd"/>
  <path d="M0 320h640v53.3H0z" fill="#0d5eaf" fill-rule="evenodd"/>
  <path d="M0 373.3h640v53.4H0z" fill="#fff" fill-rule="evenodd"/>
  <path d="M0 426.7h640V480H0z" fill="#0d5eaf"/>
</svg>
