<!--
  - Copyright (c) 2022.
  -
  - This file is part of Matchday.
  -
  - Matchday is free software: you can redistribute it and/or modify
  - it under the terms of the GNU General Public License as published by
  - the Free Software Foundation, either version 3 of the License, or
  - (at your option) any later version.
  -
  - Matchday is distributed in the hope that it will be useful,
  - but WITHOUT ANY WARRANTY; without even the implied warranty of
  - MERCHANTABILITY or FITNESS FOR A PARTICULAR PURPOSE.  See the
  - GNU General Public License for more details.
  -
  - You should have received a copy of the GNU General Public License
  - along with Matchday.  If not, see <http://www.gnu.org/licenses/>.
  -->

<svg id="flag-icons-lr" viewBox="0 0 640 480" xmlns="http://www.w3.org/2000/svg">
  <defs>
    <clipPath id="a">
      <path d="M0 0h682.7v512H0z" fill-opacity=".7"/>
    </clipPath>
  </defs>
  <g clip-path="url(#a)" fill-rule="evenodd" transform="scale(.9375)">
    <path d="M0 0h767.9v512H0z" fill="#fff"/>
    <path d="M0 0h232.7v232.8H0z" fill="#006"/>
    <path d="M0 464.9h767.9V512H0z" fill="#c00"/>
    <path d="M0 465.4h767.9V512H0zm0-92.9h767.9v46.2H0zm0-93.2h766V326H0zM232.7 0h535.1v46.5H232.7zm0 186h535.1v46.8H232.7zm0-92.7h535.1v46.5H232.7z" fill="#c00"/>
    <path d="m166.3 177.5-50.7-31-50.4 31.3 18.7-50.9-50.3-31.4 62.3-.4 19.3-50.7L135 95h62.3l-50.1 31.7 19.1 50.8z" fill="#fff"/>
  </g>
</svg>
