<!--
  - Copyright (c) 2022.
  -
  - This file is part of Matchday.
  -
  - Matchday is free software: you can redistribute it and/or modify
  - it under the terms of the GNU General Public License as published by
  - the Free Software Foundation, either version 3 of the License, or
  - (at your option) any later version.
  -
  - Matchday is distributed in the hope that it will be useful,
  - but WITHOUT ANY WARRANTY; without even the implied warranty of
  - MERCHANTABILITY or FITNESS FOR A PARTICULAR PURPOSE.  See the
  - GNU General Public License for more details.
  -
  - You should have received a copy of the GNU General Public License
  - along with Matchday.  If not, see <http://www.gnu.org/licenses/>.
  -->

<svg id="flag-icons-mh" viewBox="0 0 640 480" xmlns="http://www.w3.org/2000/svg">
  <g fill-rule="evenodd">
    <path d="M0 0h639.9v480H0z" fill="#3b5aa3"/>
    <path d="M0 467 639.9 0v87L0 480v-13z" fill="#e2ae57"/>
    <path d="M22.4 480 640 179.2l-.1-95.5L0 480h22.4zm153-464.8L169 118l-27-65.6 10.4 69.8-41.9-56.4 27.5 64.3-55-42.6 42.8 53.6-62.1-27.6 54.4 41.2-67.7-9 64 25.4L14 180.3l100.6 6.7-63.7 26.2 67-9-54.3 40 63-27.6-43 54 54.6-41.3-27 62.9 43.6-54.7-11.8 68.1 27.5-63.7 6.2 100.7 9.7-100.4 23.7 64-9-69 43.4 54.8-28.6-64 54.6 44-43.4-54.9 64.9 27-57.4-41.9 69.9 11.8-67-25.7 104.1-6.5-104-9.7 68.5-22.8-71 9 58.6-41-66 26.5 45.6-55.3-55.6 43.4 26.7-66.4-43.1 56.4 9.3-70.4-25.7 66.5-9.6-102.8z" fill="#fff"/>
  </g>
</svg>
