<!--
  - Copyright (c) 2022.
  -
  - This file is part of Matchday.
  -
  - Matchday is free software: you can redistribute it and/or modify
  - it under the terms of the GNU General Public License as published by
  - the Free Software Foundation, either version 3 of the License, or
  - (at your option) any later version.
  -
  - Matchday is distributed in the hope that it will be useful,
  - but WITHOUT ANY WARRANTY; without even the implied warranty of
  - MERCHANTABILITY or FITNESS FOR A PARTICULAR PURPOSE.  See the
  - GNU General Public License for more details.
  -
  - You should have received a copy of the GNU General Public License
  - along with Matchday.  If not, see <http://www.gnu.org/licenses/>.
  -->

<svg id="flag-icons-my" viewBox="0 0 640 480" xmlns="http://www.w3.org/2000/svg">
  <path d="M0 0h640v480H0z" fill="#c00"/>
  <path d="M.5 39.9h639v38.4H.5zM.5 118.6h639V157H.5zM.5 197.4h639v38.4H.5z" fill="#fff"/>
  <path d="M0 .5h320v280H0Z" fill="#006"/>
  <path d="m207.5 73.8 6 40.7 23-34-12.4 39.2 35.5-20.8-28.1 30 41-3.2-38.3 14.8 38.3 14.8-41-3.2 28.1 30-35.5-20.8 12.3 39.3-23-34.1-6 40.7-5.9-40.7-23 34 12.4-39.2-35.5 20.8 28-30-41 3.2 38.4-14.8-38.3-14.8 41 3.2-28.1-30 35.5 20.8-12.4-39.3 23 34.1zm-33.3 1.7a71.1 71.1 0 1 0 0 130 80 80 0 1 1 0-130z" fill="#fc0"/>
  <path d="M.5 276.2h639v38.4H.5zM.5 354.4h639v38.4H.5zM0 441.6h639V480H0z" fill="#fff"/>
</svg>
