<!--
  - Copyright (c) 2022.
  -
  - This file is part of Matchday.
  -
  - Matchday is free software: you can redistribute it and/or modify
  - it under the terms of the GNU General Public License as published by
  - the Free Software Foundation, either version 3 of the License, or
  - (at your option) any later version.
  -
  - Matchday is distributed in the hope that it will be useful,
  - but WITHOUT ANY WARRANTY; without even the implied warranty of
  - MERCHANTABILITY or FITNESS FOR A PARTICULAR PURPOSE.  See the
  - GNU General Public License for more details.
  -
  - You should have received a copy of the GNU General Public License
  - along with Matchday.  If not, see <http://www.gnu.org/licenses/>.
  -->

<svg id="flag-icons-na" viewBox="0 0 640 480" xmlns="http://www.w3.org/2000/svg">
  <defs>
    <clipPath id="a">
      <path d="M0 0h640v480H0z" fill-opacity=".7"/>
    </clipPath>
  </defs>
  <g clip-path="url(#a)" fill-rule="evenodd">
    <path d="M0 0h640v480H0z" fill="#fff"/>
    <path d="m-26.4.2.8 345.6L512.5 0-26.4.2z" fill="#3662a2"/>
    <path d="M666.4 479.6 665 120.3 122.3 479.8l544-.2z" fill="#38a100"/>
    <path d="m-26 371.8.4 108.2 117.5-.1L665.4 95.4l-.7-94.1-116-1L-26 371.7z" fill="#c70000"/>
    <path d="m219.6 172-21.8-13.2-12.6 22.1-12.2-22.2-22 12.9.6-25.4-25.4.2 13.2-21.8-22.1-12.5 22.2-12.3-12.8-22 25.4.6-.1-25.5 21.7 13.2L186.3 44l12.2 22.2 22-12.9-.6 25.4 25.4-.2-13.2 21.8 22.1 12.5-22.2 12.3 12.8 22-25.4-.6z" fill="#ffe700"/>
    <path d="M232.4 112.4c0 25.6-20.9 46.3-46.6 46.3s-46.6-20.7-46.6-46.3 20.8-46.2 46.6-46.2 46.6 20.7 46.6 46.2z" fill="#3662a2"/>
    <path d="M222.3 112.4a36.5 36.5 0 1 1-73 0 36.5 36.5 0 0 1 73 0z" fill="#ffe700"/>
  </g>
</svg>
