<!--
  - Copyright (c) 2022.
  -
  - This file is part of Matchday.
  -
  - Matchday is free software: you can redistribute it and/or modify
  - it under the terms of the GNU General Public License as published by
  - the Free Software Foundation, either version 3 of the License, or
  - (at your option) any later version.
  -
  - Matchday is distributed in the hope that it will be useful,
  - but WITHOUT ANY WARRANTY; without even the implied warranty of
  - MERCHANTABILITY or FITNESS FOR A PARTICULAR PURPOSE.  See the
  - GNU General Public License for more details.
  -
  - You should have received a copy of the GNU General Public License
  - along with Matchday.  If not, see <http://www.gnu.org/licenses/>.
  -->

<svg id="flag-icons-nr" viewBox="0 0 640 480" xmlns="http://www.w3.org/2000/svg">
  <defs>
    <clipPath id="a">
      <path d="M-54.7 0H628v512H-54.7z" fill-opacity=".7"/>
    </clipPath>
  </defs>
  <g clip-path="url(#a)" fill-rule="evenodd" stroke-width="1pt" transform="translate(51.3) scale(.9375)">
    <path d="M-140 0H884v512H-140z" fill="#002170"/>
    <path d="M-140 234.1H884V278H-140z" fill="#ffb20d"/>
    <path d="m161.8 438-33-33-10.5 45.4-12-45-31.9 34 12.1-45L42 407.9l33-33-45.4-10.6 45-12-34-31.8 45 12L72 288l33 33 10.6-45.4 12 45 31.8-34-12 45 44.5-13.5-33 33 45.4 10.5-45 12 34 32-45-12.2z" fill="#fff"/>
  </g>
</svg>
