<!--
  - Copyright (c) 2022.
  -
  - This file is part of Matchday.
  -
  - Matchday is free software: you can redistribute it and/or modify
  - it under the terms of the GNU General Public License as published by
  - the Free Software Foundation, either version 3 of the License, or
  - (at your option) any later version.
  -
  - Matchday is distributed in the hope that it will be useful,
  - but WITHOUT ANY WARRANTY; without even the implied warranty of
  - MERCHANTABILITY or FITNESS FOR A PARTICULAR PURPOSE.  See the
  - GNU General Public License for more details.
  -
  - You should have received a copy of the GNU General Public License
  - along with Matchday.  If not, see <http://www.gnu.org/licenses/>.
  -->

<svg id="flag-icons-pk" viewBox="0 0 640 480" xmlns="http://www.w3.org/2000/svg">
  <defs>
    <clipPath id="a">
      <path d="M-52.3 0h682.6v512H-52.3z" fill-opacity=".7"/>
    </clipPath>
  </defs>
  <g clip-path="url(#a)" fill-rule="evenodd" stroke-width="1pt" transform="translate(49) scale(.9375)">
    <g fill="#fff">
      <path d="m403.7 225.4-31.2-6.6-16.4 27.3-3.4-31.6-31-7.2 29-13-2.7-31.7 21.4 23.6 29.3-12.4-15.9 27.6 21 24z"/>
      <path d="M415.4 306a121.2 121.2 0 0 1-161.3 59.4 122.1 122.1 0 0 1-59.5-162.1A118.6 118.6 0 0 1 266 139a156.2 156.2 0 0 0-11.8 10.9A112.3 112.3 0 0 0 415.5 306z"/>
    </g>
    <path d="M-95 0H97.5v512H-95z" fill="#fff"/>
    <path d="M-95 0h768v512H-95z" fill="#0c590b"/>
  </g>
</svg>
