<!--
  - Copyright (c) 2022.
  -
  - This file is part of Matchday.
  -
  - Matchday is free software: you can redistribute it and/or modify
  - it under the terms of the GNU General Public License as published by
  - the Free Software Foundation, either version 3 of the License, or
  - (at your option) any later version.
  -
  - Matchday is distributed in the hope that it will be useful,
  - but WITHOUT ANY WARRANTY; without even the implied warranty of
  - MERCHANTABILITY or FITNESS FOR A PARTICULAR PURPOSE.  See the
  - GNU General Public License for more details.
  -
  - You should have received a copy of the GNU General Public License
  - along with Matchday.  If not, see <http://www.gnu.org/licenses/>.
  -->

<svg id="flag-icons-tg" viewBox="0 0 640 480" xmlns="http://www.w3.org/2000/svg">
  <defs>
    <clipPath id="a">
      <path d="M0 0h682.7v512H0z" fill-opacity=".7"/>
    </clipPath>
  </defs>
  <g clip-path="url(#a)" fill-rule="evenodd" transform="scale(.9375)">
    <path d="M0 0h767.6v512H0z" fill="#ffe300"/>
    <path d="M0 208.1h767.6V311H0zM0 .2h767.6v102.9H0z" fill="#118600"/>
    <path d="M0 .3h306.5v310.6H0z" fill="#d80000"/>
    <path d="M134.4 128.4c0-.8 18.9-53 18.9-53l17 52.2s57.4 1.7 57.4.8-45.3 34.3-45.3 34.3 21.4 60 20.5 58.2c-.8-1.7-49.6-36-49.6-36s-49.7 34.3-48.8 34.3c.8 0 18.8-56.5 18.8-56.5l-44.5-33.4 55.6-.9z" fill="#fff"/>
    <path d="M0 409.2h767.6V512H0z" fill="#118600"/>
  </g>
</svg>
