<!--
  - Copyright (c) 2022.
  -
  - This file is part of Matchday.
  -
  - Matchday is free software: you can redistribute it and/or modify
  - it under the terms of the GNU General Public License as published by
  - the Free Software Foundation, either version 3 of the License, or
  - (at your option) any later version.
  -
  - Matchday is distributed in the hope that it will be useful,
  - but WITHOUT ANY WARRANTY; without even the implied warranty of
  - MERCHANTABILITY or FITNESS FOR A PARTICULAR PURPOSE.  See the
  - GNU General Public License for more details.
  -
  - You should have received a copy of the GNU General Public License
  - along with Matchday.  If not, see <http://www.gnu.org/licenses/>.
  -->

<svg xmlns:xlink="http://www.w3.org/1999/xlink" id="flag-icons-tj" viewBox="0 0 640 480" xmlns="http://www.w3.org/2000/svg">
  <g fill="#f8c300" transform="translate(320 164.6) scale(.68571)">
    <path d="m301930 415571-790463-574305h977066l-790463 574305L0-513674z" id="c" transform="scale(.00005)"/>
  </g>
  <g fill="#f8c300" id="d" transform="translate(320 260.6) scale(.68571)">
    <use height="100%" transform="translate(-70 -121.2)" width="100%" xlink:href="#c"/>
    <use height="100%" transform="translate(-121.2 -70)" width="100%" xlink:href="#c"/>
    <use height="100%" transform="translate(-140)" width="100%" xlink:href="#c"/>
  </g>
  <path d="M0 0h640v480H0z" fill="#060"/>
  <path d="M0 0h640v342.9H0z" fill="#fff"/>
  <path d="M0 0h640v137.1H0z" fill="#c00"/>
  <path d="M300.8 233.6a8.6 8.6 0 0 1 16 4V272h6.4v-34.3a8.6 8.6 0 0 1 16-4 20.2 20.2 0 1 0-38.4 0" fill="#f8c300"/>
  <path d="M305.4 224.7a13.7 13.7 0 0 1 14.6 6.5 13.7 13.7 0 0 1 14.6-6.5 14.7 14.7 0 0 0-29.2 0" fill="#fff"/>
  <path d="M316.8 258.3a26 26 0 0 1-43.8 16.6 27 27 0 0 1-41 12c2.5 25 40 19.9 42.8-4.4 11.7 20.7 37.6 14.7 45.2-10.6z" fill="#f8c300" id="a"/>
  <path d="M291.8 302.6c-5.3 11.3-15.7 13.2-24.8 4.1 0 0 3.6-2.6 7.6-3.3-.8-3.1.7-7.5 2.9-9.8a15 15 0 0 1 6.1 8.1c5.5-.7 8.2 1 8.2 1z" fill="#f8c300" id="b"/>
  <path d="M253.5 327.8a233.1 233.1 0 0 1 133 0" fill="none" stroke="#f8c300" stroke-width="11"/>
  <use fill="#f8c300" height="100%" transform="matrix(-1 0 0 1 640 0)" width="100%" xlink:href="#a"/>
  <use fill="#f8c300" height="100%" transform="rotate(9.4 320 551.3)" width="100%" xlink:href="#b"/>
  <use fill="#f8c300" height="100%" transform="rotate(18.7 320 551.3)" width="100%" xlink:href="#b"/>
  <use fill="#f8c300" height="100%" transform="matrix(-1 0 0 1 640 0)" width="100%" xlink:href="#d"/>
</svg>
