<!--
  - Copyright (c) 2022.
  -
  - This file is part of Matchday.
  -
  - Matchday is free software: you can redistribute it and/or modify
  - it under the terms of the GNU General Public License as published by
  - the Free Software Foundation, either version 3 of the License, or
  - (at your option) any later version.
  -
  - Matchday is distributed in the hope that it will be useful,
  - but WITHOUT ANY WARRANTY; without even the implied warranty of
  - MERCHANTABILITY or FITNESS FOR A PARTICULAR PURPOSE.  See the
  - GNU General Public License for more details.
  -
  - You should have received a copy of the GNU General Public License
  - along with Matchday.  If not, see <http://www.gnu.org/licenses/>.
  -->

<svg id="flag-icons-tr" viewBox="0 0 640 480" xmlns="http://www.w3.org/2000/svg">
  <g fill-rule="evenodd">
    <path d="M0 0h640v480H0z" fill="#e30a17"/>
    <path d="M407 247.5c0 66.2-54.6 119.9-122 119.9s-122-53.7-122-120 54.6-119.8 122-119.8 122 53.7 122 119.9z" fill="#fff"/>
    <path d="M413 247.5c0 53-43.6 95.9-97.5 95.9s-97.6-43-97.6-96 43.7-95.8 97.6-95.8 97.6 42.9 97.6 95.9z" fill="#e30a17"/>
    <path d="m430.7 191.5-1 44.3-41.3 11.2 40.8 14.5-1 40.7 26.5-31.8 40.2 14-23.2-34.1 28.3-33.9-43.5 12-25.8-37z" fill="#fff"/>
  </g>
</svg>
